<?xml version="1.0" encoding="UTF-8" standalone="no"?>
<svg
   xmlns:dc="http://purl.org/dc/elements/1.1/"
   xmlns:cc="http://creativecommons.org/ns#"
   xmlns:rdf="http://www.w3.org/1999/02/22-rdf-syntax-ns#"
   xmlns:svg="http://www.w3.org/2000/svg"
   xmlns="http://www.w3.org/2000/svg"
   xmlns:sodipodi="http://sodipodi.sourceforge.net/DTD/sodipodi-0.dtd"
   xmlns:inkscape="http://www.inkscape.org/namespaces/inkscape"
   width="71.497665"
   height="23.886881"
   version="1.1"
   xml:space="preserve"
   style="clip-rule:evenodd;fill-rule:evenodd;stroke-linecap:round;stroke-linejoin:round;stroke-miterlimit:1"
   id="svg2"
   inkscape:version="0.91 r13725"
   sodipodi:docname="kirki-bottom.svg"><metadata
     id="metadata56"><rdf:RDF><cc:Work
         rdf:about=""><dc:format>image/svg+xml</dc:format><dc:type
           rdf:resource="http://purl.org/dc/dcmitype/StillImage" /><dc:title></dc:title></cc:Work></rdf:RDF></metadata><defs
     id="defs54" /><sodipodi:namedview
     pagecolor="#ffffff"
     bordercolor="#666666"
     borderopacity="1"
     objecttolerance="10"
     gridtolerance="10"
     guidetolerance="10"
     inkscape:pageopacity="0"
     inkscape:pageshadow="2"
     inkscape:window-width="1871"
     inkscape:window-height="1056"
     id="namedview52"
     showgrid="false"
     fit-margin-top="0"
     fit-margin-left="0"
     fit-margin-right="0"
     fit-margin-bottom="0"
     inkscape:zoom="4.6669048"
     inkscape:cx="-1.0852472"
     inkscape:cy="-7.0625365"
     inkscape:window-x="49"
     inkscape:window-y="24"
     inkscape:window-maximized="1"
     inkscape:current-layer="svg2" /><g
     id="g4242"
     transform="translate(-3.71284,-0.18012)"
     inkscape:export-xdpi="94"
     inkscape:export-ydpi="94"><path
       inkscape:export-ydpi="94.19397"
       inkscape:export-xdpi="94.19397"
       inkscape:connector-curvature="0"
       id="path46"
       style="fill:none;stroke:#000000;stroke-width:0.2;stroke-miterlimit:1;stroke-dasharray:none"
       d="m 10.4064,22.5387 -0.3276,0 0,1.4283 -1.65866,0 -0.31673,-2.9188 C 5.488,18.886 3.81284,15.6275 3.81284,12.0084 c 0,-2.71119 0.9401,-5.22001 2.5246,-7.23473 L 6.0704,2.31269 l 2.90602,0 C 10.8759,1.02464 13.1284,0.28012 15.5411,0.28012 c 2.4127,0 4.6652,0.74452 6.5647,2.03257 l 2.8545,0 -0.2609,2.40411 c 1.6102,2.01928 2.57,4.55213 2.57,7.2916 0,3.6568 -1.7103,6.9454 -4.3471,9.0859 l -0.3117,2.8727 -1.6586,0 0,-1.4283 -0.2761,0 c -1.5432,0.7637 -3.2923,1.1979 -5.1348,1.1979 -1.8425,0 -3.5916,-0.4342 -5.1347,-1.1979 z" /><g
       inkscape:export-ydpi="94.19397"
       inkscape:export-xdpi="94.19397"
       style="stroke-width:0.2;stroke-miterlimit:1;stroke-dasharray:none"
       id="g48"><path
         d="m 15.4462,11.8498 c 3.4224,0 6.1968,2.104 6.1968,4.6994 0,2.5955 -2.7744,4.6995 -6.1968,4.6995 -3.4224,0 -6.19678,-2.104 -6.19678,-4.6995 0,-2.5954 2.77438,-4.6994 6.19678,-4.6994 z m -1.9811,2.9947 c 0.5725,0 1.0366,0.8148 1.0366,1.8199 0,1.0051 -0.4641,1.8199 -1.0366,1.8199 -0.5725,0 -1.0366,-0.8148 -1.0366,-1.8199 0,-1.0051 0.4641,-1.8199 1.0366,-1.8199 z m 4.0544,0 c 0.5726,0 1.0367,0.8148 1.0367,1.8199 0,1.0051 -0.4641,1.8199 -1.0367,1.8199 -0.5725,0 -1.0366,-0.8148 -1.0366,-1.8199 0,-1.0051 0.4641,-1.8199 1.0366,-1.8199 z"
         style="fill:none;stroke:#000000;stroke-width:0.2;stroke-miterlimit:1;stroke-dasharray:none"
         id="path50"
         inkscape:connector-curvature="0" /></g></g><g
     id="g20"
     style="fill:#000000;fill-opacity:0.20408164"
     inkscape:export-xdpi="94.19397"
     inkscape:export-ydpi="94.19397"
     transform="matrix(0.34650485,0,0,0.34650485,30.267064,8.7780735)"><text
       xml:space="preserve"
       style="font-style:normal;font-variant:normal;font-weight:300;font-stretch:normal;font-size:40px;line-height:125%;font-family:Roboto;-inkscape-font-specification:'Roboto Light';letter-spacing:0px;word-spacing:0px;fill:#000000;fill-opacity:0.20408164;stroke:none;stroke-width:1px;stroke-linecap:butt;stroke-linejoin:miter;stroke-opacity:1"
       x="-7.2853427"
       y="42.141983"
       id="text4234"
       sodipodi:linespacing="125%"><tspan
         sodipodi:role="line"
         id="tspan4236"
         x="-7.2853427"
         y="42.141983">toolkit</tspan></text>
</g><text
     xml:space="preserve"
     style="font-style:normal;font-variant:normal;font-weight:bold;font-stretch:normal;font-size:15.76700211px;line-height:125%;font-family:'Roboto Slab';-inkscape-font-specification:'Roboto Slab Bold';letter-spacing:0px;word-spacing:0px;fill:#000000;fill-opacity:0.10204079;stroke:none;stroke-width:1px;stroke-linecap:butt;stroke-linejoin:miter;stroke-opacity:1"
     x="27.568701"
     y="11.573637"
     id="text4238"
     sodipodi:linespacing="125%"
     inkscape:export-xdpi="94"
     inkscape:export-ydpi="94"><tspan
       sodipodi:role="line"
       id="tspan4240"
       x="27.568701"
       y="11.573637">KIRKI</tspan></text>
</svg>