<?xml version="1.0" encoding="UTF-8" standalone="no"?>
<svg
   xmlns:dc="http://purl.org/dc/elements/1.1/"
   xmlns:cc="http://creativecommons.org/ns#"
   xmlns:rdf="http://www.w3.org/1999/02/22-rdf-syntax-ns#"
   xmlns:svg="http://www.w3.org/2000/svg"
   xmlns="http://www.w3.org/2000/svg"
   xmlns:sodipodi="http://sodipodi.sourceforge.net/DTD/sodipodi-0.dtd"
   xmlns:inkscape="http://www.inkscape.org/namespaces/inkscape"
   width="50"
   height="50"
   version="1.1"
   xml:space="preserve"
   style="clip-rule:evenodd;fill-rule:evenodd;stroke-linecap:round;stroke-linejoin:round;stroke-miterlimit:1"
   id="svg4136"
   inkscape:version="0.91 r13725"
   sodipodi:docname="kirki-logo.svg"><metadata
     id="metadata4190"><rdf:RDF><cc:Work
         rdf:about=""><dc:format>image/svg+xml</dc:format><dc:type
           rdf:resource="http://purl.org/dc/dcmitype/StillImage" /><dc:title></dc:title></cc:Work></rdf:RDF></metadata><defs
     id="defs4188" /><sodipodi:namedview
     pagecolor="#ffffff"
     bordercolor="#666666"
     borderopacity="1"
     objecttolerance="10"
     gridtolerance="10"
     guidetolerance="10"
     inkscape:pageopacity="0"
     inkscape:pageshadow="2"
     inkscape:window-width="1871"
     inkscape:window-height="1056"
     id="namedview4186"
     showgrid="false"
     fit-margin-top="0"
     fit-margin-left="0"
     fit-margin-right="0"
     fit-margin-bottom="0"
     inkscape:zoom="15.188889"
     inkscape:cx="41.22716"
     inkscape:cy="11.507"
     inkscape:window-x="49"
     inkscape:window-y="24"
     inkscape:window-maximized="1"
     inkscape:current-layer="svg4136" /><path
     id="path4184"
     style="fill:none;stroke:#000000;stroke-width:0.16830143px"
     d="m 24.80031,24.424072 c 7.199936,0 13.036629,4.426328 13.036629,9.886447 0,5.46033 -5.836693,9.886658 -13.036629,9.886658 -7.199935,0 -13.036587,-4.426328 -13.036587,-9.886658 0,-5.460119 5.836652,-9.886447 13.036587,-9.886447 z m -4.167774,6.300154 c 1.204407,0 2.180766,1.71415 2.180766,3.828647 0,2.114498 -0.976359,3.828648 -2.180766,3.828648 -1.204407,0 -2.180766,-1.71415 -2.180766,-3.828648 0,-2.114497 0.976359,-3.828647 2.180766,-3.828647 z m 8.529516,0 c 1.204618,0 2.180977,1.71415 2.180977,3.828647 0,2.114498 -0.976359,3.828648 -2.180977,3.828648 -1.204407,0 -2.180765,-1.71415 -2.180765,-3.828648 0,-2.114497 0.976358,-3.828647 2.180765,-3.828647 z m -14.964311,16.186812 -0.689195,0 0,3.004811 -3.489435,0 -0.6663266,-6.140478 C 3.8505687,39.226604 0.32642086,32.371476 0.32642086,24.75773 c 0,-5.703715 1.97775214,-10.98169 5.31117244,-15.2201932 l -0.5617902,-5.177331 6.1135919,0 c 3.996065,-2.709758 8.734802,-4.27605494 13.810563,-4.27605494 5.075761,0 9.814498,1.56629694 13.810605,4.27605494 l 6.005206,0 -0.548873,5.05769 c 3.387487,4.2480962 5.406683,9.5766252 5.406683,15.3398342 0,7.693058 -3.598074,14.61151 -9.145289,19.114625 l -0.655745,6.043494 -3.489309,0 0,-3.004811 -0.58085,0 c -3.246535,1.606647 -6.926236,2.520103 -10.802428,2.520103 -3.876192,0 -7.555893,-0.913456 -10.802217,-2.520103 z"
     inkscape:connector-curvature="0" /></svg>